<svg xmlns="http://www.w3.org/2000/svg" xmlns:xlink="http://www.w3.org/1999/xlink" version="1.1" width="256" height="256" viewBox="0 0 256 256" xml:space="preserve">

<defs>
</defs>
<g style="stroke: none; stroke-width: 0; stroke-dasharray: none; stroke-linecap: butt; stroke-linejoin: miter; stroke-miterlimit: 10; fill: none; fill-rule: nonzero; opacity: 1;" transform="translate(1.4065934065934016 1.4065934065934016) scale(2.81 2.81)" >
	<path d="M 45 90 C 20.187 90 0 69.813 0 45 C 0 20.187 20.187 0 45 0 c 24.813 0 45 20.187 45 45 C 90 69.813 69.813 90 45 90 z M 45 4 C 22.393 4 4 22.393 4 45 s 18.393 41 41 41 s 41 -18.393 41 -41 S 67.607 4 45 4 z" style="stroke: none; stroke-width: 1; stroke-dasharray: none; stroke-linecap: butt; stroke-linejoin: miter; stroke-miterlimit: 10; fill: rgb(0,0,0); fill-rule: nonzero; opacity: 1;" transform=" matrix(1 0 0 1 0 0) " stroke-linecap="round" />
	<path d="M 48.948 70.943 c -0.563 0 -1.123 -0.236 -1.519 -0.697 L 29.276 49.092 c -0.509 -0.593 -0.626 -1.428 -0.3 -2.138 s 1.036 -1.165 1.817 -1.165 h 10.314 c 5.189 0 9.412 -4.222 9.412 -9.412 s -4.223 -9.412 -9.412 -9.412 H 30.794 c -1.104 0 -2 -0.896 -2 -2 s 0.896 -2 2 -2 h 10.314 c 7.396 0 13.412 6.017 13.412 13.412 s -6.017 13.412 -13.412 13.412 h -5.963 l 15.319 17.852 c 0.72 0.839 0.623 2.102 -0.215 2.82 C 49.872 70.785 49.409 70.943 48.948 70.943 z" style="stroke: none; stroke-width: 1; stroke-dasharray: none; stroke-linecap: butt; stroke-linejoin: miter; stroke-miterlimit: 10; fill: rgb(0,0,0); fill-rule: nonzero; opacity: 1;" transform=" matrix(1 0 0 1 0 0) " stroke-linecap="round" />
	<path d="M 59.206 26.966 H 30.794 c -1.104 0 -2 -0.896 -2 -2 s 0.896 -2 2 -2 h 28.412 c 1.104 0 2 0.896 2 2 S 60.311 26.966 59.206 26.966 z" style="stroke: none; stroke-width: 1; stroke-dasharray: none; stroke-linecap: butt; stroke-linejoin: miter; stroke-miterlimit: 10; fill: rgb(0,0,0); fill-rule: nonzero; opacity: 1;" transform=" matrix(1 0 0 1 0 0) " stroke-linecap="round" />
	<path d="M 59.206 38.377 H 30.794 c -1.104 0 -2 -0.896 -2 -2 s 0.896 -2 2 -2 h 28.412 c 1.104 0 2 0.896 2 2 S 60.311 38.377 59.206 38.377 z" style="stroke: none; stroke-width: 1; stroke-dasharray: none; stroke-linecap: butt; stroke-linejoin: miter; stroke-miterlimit: 10; fill: rgb(0,0,0); fill-rule: nonzero; opacity: 1;" transform=" matrix(1 0 0 1 0 0) " stroke-linecap="round" />
</g>
</svg>